# This file uses centimeters as units for non-parametric coordinates.

mtllib bambooleaf1.mtl
g default
v -0.208760 -0.001146 -0.287939
v 0.277159 -0.001146 -0.001498
v -0.208760 0.001146 -0.287939
v 0.277159 0.001146 -0.001498
v -0.206516 0.001146 -0.291745
v 0.279403 0.001146 -0.005305
v -0.206516 -0.001146 -0.291745
v 0.279403 -0.001146 -0.005305
v 0.010966 -0.017036 -0.105304
v 0.059678 -0.017036 -0.187939
v 0.059678 0.017036 -0.187939
v 0.010966 0.017036 -0.105304
vt 0.375000 0.000000
vt 0.625000 0.000000
vt 0.375000 0.250000
vt 0.625000 0.250000
vt 0.375000 0.500000
vt 0.625000 0.500000
vt 0.375000 0.750000
vt 0.625000 0.750000
vt 0.375000 1.000000
vt 0.625000 1.000000
vt 0.875000 0.000000
vt 0.875000 0.250000
vt 0.125000 0.000000
vt 0.125000 0.250000
vt 0.500000 0.000000
vt 0.500000 1.000000
vt 0.500000 0.750000
vt 0.500000 0.500000
vt 0.500000 0.250000
vn -0.507818 0.000000 0.861465
vn -0.507818 0.000000 0.861465
vn -0.363317 0.000000 0.931666
vn -0.363317 0.000000 0.931666
vn 0.000000 1.000000 -0.000000
vn 0.000000 1.000000 -0.000000
vn 0.048459 0.998417 0.028566
vn 0.048459 0.998417 0.028566
vn 0.507818 0.000000 -0.861465
vn 0.507818 0.000000 -0.861465
vn 0.639213 0.000000 -0.769030
vn 0.639213 0.000000 -0.769030
vn 0.000000 -1.000000 -0.000000
vn 0.000000 -1.000000 -0.000000
vn 0.048459 -0.998417 0.028566
vn 0.048459 -0.998417 0.028566
vn 0.861464 0.000000 0.507818
vn 0.861464 0.000000 0.507818
vn 0.861464 0.000000 0.507818
vn 0.861464 0.000000 0.507818
vn -0.861461 0.000000 -0.507823
vn -0.861461 0.000000 -0.507823
vn -0.861461 0.000000 -0.507823
vn -0.861461 0.000000 -0.507823
vn -0.048459 -0.998417 -0.028566
vn -0.048459 -0.998417 -0.028566
vn 0.363316 0.000000 -0.931666
vn 0.363316 0.000000 -0.931666
vn -0.048459 0.998417 -0.028566
vn -0.048459 0.998417 -0.028566
vn -0.639213 0.000000 0.769030
vn -0.639213 0.000000 0.769030
s 1
g pCube1
usemtl initialShadingGroup
f 12/19/1 9/15/2 2/2/3 4/4/4
s 2
f 11/18/5 12/19/6 4/4/7 6/6/8
s 3
f 10/17/9 11/18/10 6/6/11 8/8/12
s 4
f 9/16/13 10/17/14 8/8/15 2/10/16
s off
f 2/2/17 8/11/18 6/12/19 4/4/20
f 7/13/21 1/1/22 3/3/23 5/14/24
s 4
f 7/7/25 10/17/14 9/16/13 1/9/26
s 3
f 5/5/27 11/18/10 10/17/9 7/7/28
s 2
f 3/3/29 12/19/6 11/18/5 5/5/30
s 1
f 1/1/31 9/15/2 12/19/1 3/3/32
g default
v -0.282031 -0.001146 -0.001282
v 0.282031 -0.001146 -0.001282
v -0.282031 0.001146 -0.001282
v 0.282031 0.001146 -0.001282
v -0.282031 0.001146 -0.005701
v 0.282031 0.001146 -0.005701
v -0.282031 -0.001146 -0.005701
v 0.282031 -0.001146 -0.005701
v 0.000000 -0.017036 0.044471
v 0.000000 -0.017036 -0.051453
v 0.000000 0.017036 -0.051453
v 0.000000 0.017036 0.044471
vt 0.375000 0.000000
vt 0.625000 0.000000
vt 0.375000 0.250000
vt 0.625000 0.250000
vt 0.375000 0.500000
vt 0.625000 0.500000
vt 0.375000 0.750000
vt 0.625000 0.750000
vt 0.375000 1.000000
vt 0.625000 1.000000
vt 0.875000 0.000000
vt 0.875000 0.250000
vt 0.125000 0.000000
vt 0.125000 0.250000
vt 0.500000 0.000000
vt 0.500000 1.000000
vt 0.500000 0.750000
vt 0.500000 0.500000
vt 0.500000 0.250000
vn 0.000000 0.000000 1.000000
vn 0.000000 0.000000 1.000000
vn 0.160132 0.000000 0.987096
vn 0.160132 0.000000 0.987096
vn 0.000000 1.000000 0.000000
vn 0.000000 1.000000 0.000000
vn 0.056252 0.998417 0.000000
vn 0.056252 0.998417 0.000000
vn 0.000000 0.000000 -1.000000
vn 0.000000 0.000000 -1.000000
vn 0.160132 0.000000 -0.987096
vn 0.160132 0.000000 -0.987096
vn 0.000000 -1.000000 0.000000
vn 0.000000 -1.000000 0.000000
vn 0.056252 -0.998417 0.000000
vn 0.056252 -0.998417 0.000000
vn 1.000000 0.000000 0.000000
vn 1.000000 0.000000 0.000000
vn 1.000000 0.000000 0.000000
vn 1.000000 0.000000 0.000000
vn -1.000000 0.000000 0.000000
vn -1.000000 0.000000 0.000000
vn -1.000000 0.000000 0.000000
vn -1.000000 0.000000 0.000000
vn -0.056252 -0.998417 0.000000
vn -0.056252 -0.998417 0.000000
vn -0.160132 0.000000 -0.987096
vn -0.160132 0.000000 -0.987096
vn -0.056252 0.998417 0.000000
vn -0.056252 0.998417 0.000000
vn -0.160132 0.000000 0.987096
vn -0.160132 0.000000 0.987096
s 1
g pCube2
usemtl initialShadingGroup
f 24/38/33 21/34/34 14/21/35 16/23/36
s 2
f 23/37/37 24/38/38 16/23/39 18/25/40
s 3
f 22/36/41 23/37/42 18/25/43 20/27/44
s 4
f 21/35/45 22/36/46 20/27/47 14/29/48
s off
f 14/21/49 20/30/50 18/31/51 16/23/52
f 19/32/53 13/20/54 15/22/55 17/33/56
s 4
f 19/26/57 22/36/46 21/35/45 13/28/58
s 3
f 17/24/59 23/37/42 22/36/41 19/26/60
s 2
f 15/22/61 24/38/38 23/37/37 17/24/62
s 1
f 13/20/63 21/34/34 24/38/33 15/22/64
g default
v -0.205817 -0.001146 0.289383
v 0.279155 -0.001146 0.001342
v -0.205817 0.001146 0.289383
v 0.279155 0.001146 0.001342
v -0.208073 0.001146 0.285584
v 0.276899 0.001146 -0.002457
v -0.208073 -0.001146 0.285584
v 0.276899 -0.001146 -0.002457
v 0.060033 -0.017036 0.184700
v 0.011049 -0.017036 0.102226
v 0.011049 0.017036 0.102226
v 0.060033 0.017036 0.184700
vt 0.375000 0.000000
vt 0.625000 0.000000
vt 0.375000 0.250000
vt 0.625000 0.250000
vt 0.375000 0.500000
vt 0.625000 0.500000
vt 0.375000 0.750000
vt 0.625000 0.750000
vt 0.375000 1.000000
vt 0.625000 1.000000
vt 0.875000 0.000000
vt 0.875000 0.250000
vt 0.125000 0.000000
vt 0.125000 0.250000
vt 0.500000 0.000000
vt 0.500000 1.000000
vt 0.500000 0.750000
vt 0.500000 0.500000
vt 0.500000 0.250000
vn 0.510655 0.000000 0.859786
vn 0.510655 0.000000 0.859786
vn 0.641745 0.000000 0.766918
vn 0.641745 0.000000 0.766918
vn 0.000000 1.000000 0.000000
vn -0.000000 1.000000 0.000000
vn 0.048364 0.998417 -0.028725
vn 0.048364 0.998417 -0.028725
vn -0.510655 0.000000 -0.859786
vn -0.510655 0.000000 -0.859786
vn -0.366386 0.000000 -0.930463
vn -0.366386 0.000000 -0.930463
vn -0.000000 -1.000000 0.000000
vn 0.000000 -1.000000 0.000000
vn 0.048364 -0.998417 -0.028725
vn 0.048364 -0.998417 -0.028725
vn 0.859787 0.000000 -0.510653
vn 0.859787 0.000000 -0.510653
vn 0.859787 0.000000 -0.510653
vn 0.859787 0.000000 -0.510653
vn -0.859784 0.000000 0.510657
vn -0.859784 0.000000 0.510657
vn -0.859784 0.000000 0.510657
vn -0.859784 0.000000 0.510657
vn -0.048364 -0.998417 0.028725
vn -0.048364 -0.998417 0.028725
vn -0.641745 0.000000 -0.766918
vn -0.641745 0.000000 -0.766918
vn -0.048364 0.998417 0.028725
vn -0.048364 0.998417 0.028725
vn 0.366386 0.000000 0.930463
vn 0.366386 0.000000 0.930463
s 1
g pCube3
usemtl initialShadingGroup
f 36/57/65 33/53/66 26/40/67 28/42/68
s 2
f 35/56/69 36/57/70 28/42/71 30/44/72
s 3
f 34/55/73 35/56/74 30/44/75 32/46/76
s 4
f 33/54/77 34/55/78 32/46/79 26/48/80
s off
f 26/40/81 32/49/82 30/50/83 28/42/84
f 31/51/85 25/39/86 27/41/87 29/52/88
s 4
f 31/45/89 34/55/78 33/54/77 25/47/90
s 3
f 29/43/91 35/56/74 34/55/73 31/45/92
s 2
f 27/41/93 36/57/70 35/56/69 29/43/94
s 1
f 25/39/95 33/53/66 36/57/65 27/41/96
